<svg width="341" height="214" fill="none" xmlns="http://www.w3.org/2000/svg"><path opacity=".981" d="M337.544 202.704a28.288 28.288 0 012.438 10.3c-19.372.159-38.742-.006-58.11-.495-9.867-31.884-29.929-54.881-60.161-68.962l-.019-.009-.019-.007a124.26 124.26 0 00-26.105-6.526l-.547-.076-.021.552a1579.487 1579.487 0 00-1.005 75.523c-45.92.363-83.879-10.23-113.915-31.743-30.143-21.59-52.352-54.211-66.602-97.91C5.626 56.817 1.47 29.716 1.008 2.046c3.04.226 5.9-.12 8.577-1.045h45.724c1.022.934 1.753 2.12 2.192 3.575.26 32.298 7.276 63.014 21.047 92.139l.007.015.008.014c10.074 18.1 23.626 32.992 40.654 44.669l.019.013.019.011a96.95 96.95 0 0017.088 7.539l.102.033.107-.011a5.43 5.43 0 002.753-1.101l.192-.148.003-.243c.498-48.5.666-97.002.502-145.505h54.002c.205 26.53.204 53.028-.004 79.496v.043l.007.042c.214 1.307.738 2.318 1.641 2.92.897.598 2.069.727 3.437.492l.016-.003.015-.004c17.193-4.114 31.617-12.835 43.259-26.155 14.079-15.781 24.434-33.803 31.063-54.062l2.285-2.285c2.473-.197 4.764-.69 6.869-1.484h41.675c.379.422.832.727 1.357.902.394.132.816.185 1.261.17-5.279 28.09-17.361 52.782-36.249 74.085l-16.47 16.47a336.959 336.959 0 01-17.953 13.463l-.642.449.678.394c38.376 22.258 65.466 54.168 81.284 95.745l.005.013.006.013z" fill="#000" stroke="#000"/></svg>