<svg width="512" height="444" fill="none" xmlns="http://www.w3.org/2000/svg"><path opacity=".987" fill-rule="evenodd" clip-rule="evenodd" d="M511.5 9v13A143743.974 143743.974 0 00431 425c-10.214 18.587-25.048 23.421-44.5 14.5a30780.716 30780.716 0 01-187-144 50631.96 50631.96 0 00225-202A85.349 85.349 0 00435 82c1.494-5.836-.673-8.002-6.5-6.5a68.705 68.705 0 00-14 7A42215.859 42215.859 0 01130 263a10929.12 10929.12 0 00-111.5-37.5c-8.48-3.209-14.813-8.709-19-16.5v-11c4.302-6.127 9.969-10.627 17-13.5a191667.624 191667.624 0 00459-180c9.846-4.428 19.846-5.095 30-2 2.356 1.914 4.356 4.08 6 6.5z" fill="#000"/></svg>